<?xml version="1.0" encoding="utf-8"?>
<svg version="1.1" id="atom-sfcc" xmlns="http://www.w3.org/2000/svg" xmlns:xlink="http://www.w3.org/1999/xlink" x="0px" y="0px" viewBox="0 0 217 53" style="enable-background:new 0 0 217 53;" xml:space="preserve">
	<style type="text/css">
		.st0 {
			fill: url("#SVGID_1_");
		}
		.st1 {
			fill: url("#SVGID_2_");
		}
		.st2 {
			fill: url("#SVGID_3_");
		}
		.st3 {
			fill: url("#SVGID_4_");
		}
		.st4 {
			fill: url("#SVGID_5_");
		}
		.st5 {
			fill: url("#SVGID_6_");
		}
		.st6 {
			fill: url("#SVGID_7_");
		}
		.st7 {
			fill: url("#SVGID_8_");
		}
		.st8 {
			fill: url("#SVGID_9_");
		}
		.st9 {
			fill: url("#SVGID_10_");
		}
		.st10 {
			fill: url("#SVGID_11_");
		}
	</style>
	<g>
		<linearGradient id="SVGID_1_" gradientUnits="userSpaceOnUse" x1="0" y1="20.6523" x2="12.2847" y2="20.6523">
			<stop offset="0.5575" style="stop-color:#30A3D7;stop-opacity:0.85"/>
			<stop offset="1" style="stop-color:#0075BE"/>
		</linearGradient>
		<path
			class="st0"
			d="M7.9,23.2c1.2,1,1.6,2.4,1.4,3.5c-0.1,0.6-0.5,0.8-1,0.4c-1.9-1.4-4.7-2.7-6.7-3.7c-1-0.5-1.3-1.3-1.6-2.9
		c-0.2-0.9,0-1.2,0.9-1.5c2.8-0.9,8.1-3.3,10.4-4.8c0.6-0.4,0.9-0.1,0.9,0.5c0,1-0.7,2.6-2.1,3.6c-1.3,1-3.4,2-5.4,2.9
		C6,21.8,7.1,22.5,7.9,23.2z"/>
		<linearGradient id="SVGID_2_" gradientUnits="userSpaceOnUse" x1="12.0247" y1="25.4083" x2="36.7058" y2="25.4083">
			<stop offset="0.5575" style="stop-color:#30A3D7;stop-opacity:0.85"/>
			<stop offset="1" style="stop-color:#0075BE"/>
		</linearGradient>
		<path
			class="st1"
			d="M32,14.6c0.5-0.7,0.9-0.8,1.3-0.3c0.8,1,1.3,3.4-0.1,6.1c-1.2,2.5-4,6.6-5.3,9.5c-1.4,3.1-1.4,5.4,0.4,5.3
		c2.3-0.1,5.3-3.8,7.3-7.6c0.3-0.5,0.7-0.5,0.9-0.1c0.2,0.5,0.2,1.9-0.5,3.4c-1.4,3-4.9,6-8,5.9c-3-0.2-4.6-1.9-4.6-4.5
		c-1.8,2.3-4.3,4.3-6.9,4.3c-5.2,0-6.2-7-1.6-13.6c4.5-6.5,8.9-9,11.7-9c2.4,0,3.5,1.8,3.4,4C30.7,16.7,31.4,15.5,32,14.6z
		 M27.6,16.9c-1.8-0.2-5.8,3.4-8.9,8.3c-2.9,4.7-3.7,9.6-1.5,9.6c2.3,0.1,5.2-3.5,8-8.3C28.7,20.4,29.2,17,27.6,16.9z"/>
		<linearGradient id="SVGID_3_" gradientUnits="userSpaceOnUse" x1="34.6597" y1="20.5193" x2="51.6601" y2="20.5193">
			<stop offset="0.5575" style="stop-color:#30A3D7;stop-opacity:0.85"/>
			<stop offset="1" style="stop-color:#0075BE"/>
		</linearGradient>
		<path
			class="st2"
			d="M38,13c-0.6-0.8-0.2-1.2,0.6-1.1c1.6,0.1,3.1-0.1,4.6-0.2c1.7-3,3.3-5.6,4.2-6.8c0.5-0.7,1.1-0.7,1.3,0
		c0.6,1.5,0.6,3.4-0.7,6.2c2.2-0.1,3,0.9,3.4,1.6c0.4,0.7,0.2,1-0.7,1c-1.2-0.2-2.9,0-4.3,0.2c-2.2,3.7-5.3,9-7.4,13.6
		c-1.8,4-1.2,7.4,1.1,7.5c2.5,0.1,5.7-3.8,7.7-7.9c0.3-0.7,0.9-0.8,1.2,0c0.3,0.9,0,1.9-0.6,3.1c-0.7,1.6-4.4,6.4-8.8,6.3
		c-3.7-0.1-6.6-4.2-3.9-10.5c1.2-2.7,3.5-7.4,5.9-11.7C39.7,14.5,38.4,13.6,38,13z"/>
		<linearGradient id="SVGID_4_" gradientUnits="userSpaceOnUse" x1="46.8308" y1="25.6592" x2="99.7284" y2="25.6592">
			<stop offset="0.5575" style="stop-color:#30A3D7;stop-opacity:0.85"/>
			<stop offset="1" style="stop-color:#0075BE"/>
		</linearGradient>
		<path
			class="st3"
			d="M99.2,31c-1.6,3-5.1,5.9-8.3,5.8c-4.8-0.1-6.4-3.8-4.5-8.2c2-4.6,6.9-10.7,6.1-11c-0.4-0.2-2.4,0.5-5.9,4.1
		c-4.6,4.5-7.3,9.7-9.6,14.8c-0.3,0.7-0.8,0.8-1.3,0.3c-0.9-0.9-1.6-3-0.1-6.9c1.8-4.6,7.7-12.1,6.7-12.5c-0.6-0.2-3.3,1.3-6.9,5.1
		c-3.2,3.5-5.9,8.5-8.1,13.7c-0.2,0.4-0.5,0.6-1.1,0.2c-1.2-0.9-1.4-2.8-0.6-5.6c0.6-1.8,1.9-4.6,3.6-7.7c-1.6,1-3.2,1.5-5.2,1.4
		c-1.1,4.7-4.6,10.4-8.7,11.8c-2,0.7-4.8,0.6-7.1-2.4c-2.4-3.2-1.6-8,0.9-12.4c2.1-3.7,5.5-6.9,8.8-7.1c1.7-0.1,2.6,0.4,3.7,1.9
		c1.3,1.7,3,2,2.7,6c0,0.3,0,0.6-0.1,0.9c3.6-0.1,7.2-4.1,10-8.6c0.3-0.5,0.9-0.5,1.2,0c0.9,1.4,0.7,3.6-0.1,5.7
		c2.5-2.7,6.6-6,8.6-5.9c1.9,0.1,2.8,3,2.2,5.4c2.6-2.5,6.3-5.1,8.1-5c2,0.1,2.4,3.3,1.3,5.9c-1.1,2.5-3.7,6.1-5.1,8.8
		c-1.6,3.1-0.8,5.7,1.2,5.6c2.2-0.1,4.7-3.7,6.8-7.6c0.3-0.5,0.7-0.4,0.9,0C99.8,27.9,99.8,29.7,99.2,31z M56.8,18.5
		c-1.5,1.3-3.1,3.1-4.3,5.2c-2.4,4.1-3.2,9.1-1.7,10.4c1.5,1.3,4.9-0.7,7.6-5.7c0.9-1.7,1.6-3.3,2-4.7
		C58.5,22.6,56.9,20.6,56.8,18.5z M61.2,18.5c-0.3-1.8-1.4-1.5-1.7,0.2c-0.2,1.2,0.2,2.7,1.3,3.7C61.2,20.7,61.4,19.5,61.2,18.5z"/>
		<linearGradient id="SVGID_5_" gradientUnits="userSpaceOnUse" x1="98.6248" y1="22.8404" x2="113.1043" y2="22.8404">
			<stop offset="0.5575" style="stop-color:#30A3D7;stop-opacity:0.85"/>
			<stop offset="1" style="stop-color:#0075BE"/>
		</linearGradient>
		<path class="st4" d="M98.7,22c-0.1-0.5-0.1-0.8,0.6-0.8c3,0.2,7.1-0.4,9.7-0.4c2.8,0,3.8,1.3,4.2,2.9c0.1,0.5,0,0.8-0.6,0.8
		c-4.1-0.3-7.2,0.6-9.7,0.5C100.1,24.8,99,23.6,98.7,22z"/>
		<linearGradient id="SVGID_6_" gradientUnits="userSpaceOnUse" x1="113.5313" y1="24.3919" x2="133.3525" y2="24.3919">
			<stop offset="0.5575" style="stop-color:#30A3D7;stop-opacity:0.85"/>
			<stop offset="1" style="stop-color:#0075BE"/>
		</linearGradient>
		<path
			class="st5"
			d="M122.8,17.4c0.3-2.1,0.8-3.2,2-4.2c1.2-1.1,2.5-1.3,3-0.8c0.6,0.5,0.3,1.2-0.4,2.4c-0.2,0.3-0.4,0.7-0.6,1
		c-0.4,5.1,0.7,9.3,0.5,13.1c-0.1,2.1-0.5,4.5-2.5,5.8c3.7-1.4,6.1-4.7,7.4-7.6c0.3-0.6,0.8-0.4,1.1,0c0.2,0.5,0.2,1.9-0.8,3.6
		c-2.1,3.8-5.9,5.9-9.8,6c-3.2,0.1-6.3-0.7-8.2-4.1c-1.3-2.5-1.2-6.1,0.7-7.6c0.7-0.5,1.1-0.3,1.2,0.5c0.1,0.4,0.1,0.9,0.1,1.3
		C118.7,23.7,121.2,20.2,122.8,17.4z M116.9,29.8c0.8,3.2,2.4,5.4,4.3,4.9c2.6-0.8,1.7-9.4,1.5-13.8C121.1,23.8,119,26.8,116.9,29.8
		z"/>
		<linearGradient id="SVGID_7_" gradientUnits="userSpaceOnUse" x1="125.8904" y1="27.1174" x2="148.2579" y2="27.1174">
			<stop offset="0.5575" style="stop-color:#30A3D7;stop-opacity:0.85"/>
			<stop offset="1" style="stop-color:#0075BE"/>
		</linearGradient>
		<path
			class="st6"
			d="M139.8,32.1c0,0.6-0.1,1.2-0.1,1.9c2.1-1.4,4.3-4.1,5.8-7c0.3-0.7,0.9-0.7,1.2,0.1c0.3,0.8-0.1,2-0.6,3.3
		c-0.6,1.3-3.3,4.6-6.7,5.7c-0.9,5.6-3.3,11.7-6,15c-1.9,2.3-3.3,2.5-4.9,1.1c-1.4-1.2-3.1-3.3-2.4-8c1.6-12.3,14.3-33.3,20.5-42.4
		c0.4-0.7,1.2-0.6,1.4,0.1c0.7,1.9,0.5,4.2-1.9,8.2c-2.3,3.7-6.1,9.9-9.1,15.7C139,26.4,139.9,28.5,139.8,32.1z M129.1,50
		c1.2,1.6,5.4-6,7.2-13.5c-1.6-0.2-2.7-0.9-3.4-2.2C129.8,41.6,127.8,48.4,129.1,50z M137.1,30.9c0.1-2-0.5-3.7-0.9-3.6
		c-0.6,0.2-1.1,3.1-1.1,4.4c-0.1,1.8,0.4,2.9,1.5,3.1C136.9,33.5,137.1,32.2,137.1,30.9z"/>
		<linearGradient id="SVGID_8_" gradientUnits="userSpaceOnUse" x1="144.7507" y1="25.417" x2="164.0341" y2="25.417">
			<stop offset="0.5575" style="stop-color:#30A3D7;stop-opacity:0.85"/>
			<stop offset="1" style="stop-color:#0075BE"/>
		</linearGradient>
		<path
			class="st7"
			d="M161.4,17.6c1.2,2.3-1.1,5.2-2.2,8.2c-0.2,0.7-0.4,0.8-1.2,0.4c-1.3-0.7-2.1-2.3-1.3-4.8
		c0.6-2,2.3-4.3,1.5-4.9c-0.9-0.8-5.1,2.7-7.6,7.7c-3.1,6.2-1.9,10.8,1.4,10.8c4.7,0.1,8.7-4.3,10.9-7.8c0.3-0.4,0.8-0.5,1,0.1
		c0.2,0.4-0.1,1.8-1,3.3c-2.1,3.2-6.5,5.9-10.7,6c-7.1,0.1-9.4-6.7-5.8-13.8c3.6-6.9,9.2-9.9,12-8.2
		C159.9,15.5,160.8,16.4,161.4,17.6z"/>
		<linearGradient id="SVGID_9_" gradientUnits="userSpaceOnUse" x1="162.0387" y1="25.417" x2="181.3221" y2="25.417">
			<stop offset="0.5575" style="stop-color:#30A3D7;stop-opacity:0.85"/>
			<stop offset="1" style="stop-color:#0075BE"/>
		</linearGradient>
		<path
			class="st8"
			d="M178.7,17.6c1.2,2.3-1.1,5.2-2.2,8.2c-0.2,0.7-0.4,0.8-1.2,0.4c-1.3-0.7-2.1-2.3-1.3-4.8
		c0.6-2,2.3-4.3,1.5-4.9c-0.9-0.8-5.1,2.7-7.6,7.7c-3.1,6.2-1.9,10.8,1.4,10.8c4.7,0.1,8.7-4.3,10.9-7.8c0.3-0.4,0.8-0.5,1,0.1
		c0.2,0.4-0.1,1.8-1,3.3c-2.1,3.2-6.5,5.9-10.7,6c-7.1,0.1-9.4-6.7-5.8-13.8c3.6-6.9,9.2-9.9,12-8.2C177.2,15.5,178,16.4,178.7,17.6
		z"/>
		<linearGradient id="SVGID_10_" gradientUnits="userSpaceOnUse" x1="180.6593" y1="18.9206" x2="211.1391" y2="18.9206">
			<stop offset="0.5575" style="stop-color:#30A3D7;stop-opacity:0.85"/>
			<stop offset="1" style="stop-color:#0075BE"/>
		</linearGradient>
		<path class="st9" d="M211.1,0.7c0.3,1.6-0.4,4.1-3.4,7.5c-4.4,5.1-20.2,20.8-25.7,29.2c-0.3,0.4-0.8,0.6-1.1-0.1
		c-0.4-1.2-0.3-2.9,0.9-5.1c3.3-6.2,21.5-25.8,27.9-31.9C210.4-0.2,210.9-0.1,211.1,0.7z"/>
		<linearGradient id="SVGID_11_" gradientUnits="userSpaceOnUse" x1="204.6178" y1="20.7473" x2="216.9937" y2="20.7473">
			<stop offset="0.5575" style="stop-color:#30A3D7;stop-opacity:0.85"/>
			<stop offset="1" style="stop-color:#0075BE"/>
		</linearGradient>
		<path
			class="st10"
			d="M208.5,18.5c-1.2-1.1-1.6-2.6-1.4-3.6c0.1-0.7,0.5-0.8,1-0.4c2.3,1.6,5.6,3.4,8.2,4.5
		c0.8,0.3,0.9,0.8,0.5,1.6c-0.8,1.6-1.3,2.4-2.4,2.8c-2.7,1-6.2,2.3-8.8,3.7c-0.6,0.3-0.8,0.2-0.8-0.5c-0.1-0.9,0.8-2.5,2.1-3.4
		c1.4-1,3.2-1.8,5.2-2.5C210.5,20,209.2,19.1,208.5,18.5z"/>
	</g>
</svg>
